# xmcd CD database file
#
# Track frame offsets:
#	150
#	20640
#	41177
#	62395
#	80927
#	98522
#	111745
#	146335
#	162952
#	185022
#	206080
#	216532
#	234600
#	246800
#	270287
#	295340
#	325397
#
# Disc length: 4597 seconds
#
# Revision: 1
# Processed by: cddbd v1.5.2PL0 Copyright (c) Steve Scherf et al.
# Submitted via: CDex 1.70beta2
#
DISCID=0911f311
DTITLE=Thin Lizzy - Live and Dangerous
DYEAR=1978
DGENRE=Rock
TTITLE0=Jailbreak
TTITLE1=Emerald
TTITLE2=Southbound
TTITLE3=Rosalie
TTITLE4=Dancing In The Moonlight
TTITLE5=Massacre
TTITLE6=Still In Love With You
TTITLE7=Johnny The Fox Meets Jimmy The Weed
TTITLE8=Cowboy Song
TTITLE9=The Boys Are Back In Town
TTITLE10=Don't Believe A Word
TTITLE11=Warriors
TTITLE12=Are You Ready
TTITLE13=Suicide
TTITLE14=Sha La La
TTITLE15=Baby Drives Me Crazy
TTITLE16=The Rocker
EXTD=YEAR: 1978
EXTT0=
EXTT1=
EXTT2=
EXTT3=
EXTT4=
EXTT5=
EXTT6=
EXTT7=
EXTT8=
EXTT9=
EXTT10=
EXTT11=
EXTT12=
EXTT13=
EXTT14=
EXTT15=
EXTT16=
PLAYORDER=
